<svg enable-background="new 0 0 512 512" viewBox="0 0 512 512" xmlns="http://www.w3.org/2000/svg"><circle cx="263.872" cy="263.558" fill="#cecece" r="168.193"/><circle cx="263.872" cy="263.558" fill="#dbdbdb" r="132.504"/><g fill="#cecece"><path d="m503.859 40.27v65.76c.024 19.728.053 42.744.084 67.404.016 12.33.033 25.071.049 38.018-.021 12.947-.041 26.099-.062 39.251-.063 26.304-.125 52.608-.184 77.268-.031 12.33-.061 24.249-.089 35.552.003 5.651.005 11.148.007 16.466.037 5.317.073 10.455.107 15.387.04 4.932.079 9.659.116 14.154.086 4.495.168 8.759.245 12.767.103 8.015.397 15.002.603 20.756.171 5.754.487 10.275.625 13.358.193 3.082.295 4.727.295 4.727.657 10.519-7.337 19.579-17.856 20.236s-19.579-7.337-20.236-17.856c-.033-.532-.044-1.06-.034-1.583l.019-.797s.009-.411.027-1.207c.023-.796.031-1.978.1-3.519.144-3.083.227-7.604.592-13.358.325-5.754.671-12.741 1.328-20.756.3-4.007.62-8.271.957-12.767.388-4.495.807-9.222 1.414-14.154.269-2.466.604-4.983.958-7.549.33-2.566.729-5.179 1.13-7.838.809-5.317 1.755-10.814 2.666-16.466.907-5.651 1.921-11.457 2.754-17.39.802-5.934 1.578-11.996 1.988-18.161.286-3.083.342-6.191.517-9.321.025-1.565.051-3.136.077-4.712.027-1.576.058-3.158.008-4.744-.055-3.172-.09-6.364-.298-9.572-.085-1.604-.171-3.212-.257-4.823-.129-1.611-.249-3.227-.441-4.845-.673-6.473-2.003-12.998-3.793-19.548s-4.175-13.126-6.692-19.702c-2.494-6.576-5.118-13.152-7.277-19.702-.585-1.638-1.036-3.274-1.558-4.908-.531-1.634-.96-3.266-1.397-4.895-.926-3.259-1.65-6.509-2.306-9.745-.664-3.237-1.129-6.46-1.632-9.668-.482-3.208-1.019-6.399-1.448-9.572-.92-6.345-1.781-12.613-2.283-18.778-.521-6.165-.71-12.227-.521-18.161.182-5.934.724-11.739 1.464-17.39.749-5.651 1.725-11.148 2.787-16.466.258-1.329.513-2.647.766-3.954.27-1.306.585-2.601.871-3.884.605-2.566 1.113-5.083 1.765-7.549 2.43-9.864 5.295-18.906 8.139-26.921 2.861-8.015 5.776-15.002 8.492-20.756 2.702-5.754 5.117-10.275 6.919-13.358.922-1.541 1.608-2.723 2.105-3.519.517-.796.783-1.207.783-1.207l2.836-4.372c2.415-3.723 7.39-4.783 11.112-2.368 2.351 1.524 3.639 4.127 3.659 6.737z"/><path d="m69.417 60.721c-2.48 0-4.417 1.719-5.417 4.029v78.922c0 2.281-1.719 4.13-4 4.13s-4-1.849-4-4.13v-78.623c-1-2.46-3.094-4.328-5.681-4.328-2.18 0-4.319 1.326-5.319 3.216v79.735c0 2.281-1.621 4.13-3.902 4.13-2.169 0-3.699-1.677-3.869-3.803h-.229v-78.018c0-2.905-2.095-5.26-5-5.26s-5 2.355-5 5.26v78.019h-.284c-.17 2.125-2.172 3.803-4.341 3.803-2.281 0-4.375-1.849-4.375-4.13v-79.856c0-1.824-2.612-3.096-4.744-3.096-2.905 0-5.256 2.355-5.256 5.26v78.034 5.26 35.725h.023c-.005 1-.018.693-.018.937 0 13.789 8.419 25.753 20.387 30.813.037 4.868-.016 10.343-.02 16.228-.018 6.336-.141 13.227-.214 20.487-.147 7.26-.301 14.93-.461 22.85-.235 7.92-.477 16.111-.723 24.427-.106 4.158-.308 8.353-.476 12.56-.177 4.208-.332 8.433-.581 12.658-.423 8.448-.963 16.897-1.519 25.214-.588 8.316-1.167 16.501-1.727 24.421-.556 7.92-1.125 15.577-1.535 22.837-.474 7.26-.775 14.125-1.103 20.461-.306 6.336-.508 12.145-.585 17.293-.098 5.148-.08 9.636-.02 13.332.055 3.696.17 6.6.264 8.58.119 1.98.182 3.036.182 3.036.63 10.716 9.188 19.512 20.169 20.169 11.849.709 22.029-8.321 22.738-20.169 0 0 .063-1.056.182-3.036.094-1.98.21-4.884.264-8.58.06-3.696.077-8.184-.02-13.332-.077-5.148-.279-10.956-.585-17.293-.328-6.336-.628-13.2-1.103-20.461-.41-7.26-.979-14.917-1.535-22.837-.56-7.92-1.139-16.105-1.727-24.421-.556-8.316-1.096-16.765-1.519-25.213-.25-4.224-.405-8.448-.581-12.656-.169-4.208-.37-8.399-.476-12.557-.246-8.316-.489-16.501-.723-24.421-.16-7.92-.315-15.577-.461-22.837-.073-7.26-.196-14.125-.214-20.461-.004-5.885-.057-11.307-.02-16.175 11.968-5.06 20.387-17.129 20.387-30.918 0-.244-.013.063-.018-.937h.368v-35.726-5.26-78.032c0-2.905-2.678-5.26-5.583-5.26z"/></g></svg>