<svg viewBox="0 0 3014 2512" xmlns="http://www.w3.org/2000/svg"><path d="M0 1800q0 172 121.5 294T415 2216h148q68 0 116.5-48.5T728 2051q0-68-48.5-116.5T563 1886H415q-35 0-60.5-25t-25.5-61V710q0-35 25.5-60t60.5-25h148q68 0 116.5-48.5T728 460q0-68-48.5-116T563 296H415q-172 0-293.5 121T0 710v1090zm488-516q0-68 48.5-116t116.5-48h705l-225-227q-49-48-49-116.5t49-116.5q48-48 116-48t116 48l507 508q48 48 48 116t-48 116l-497 497q-48 48-116 48t-117-48q-48-48-48-116t49-117l215-215H653q-67 0-116-49t-49-116z"/></svg>